<svg version="1.0" xmlns="http://www.w3.org/2000/svg" width="1066.7" height="1066.7" viewBox="-100 -100 1000 1000">
  <path d="M0 1h1l1-1H1L0 1zM614 21h-8c-7 1-14 3-14 5l-2 1c-5 0-23 14-26 20-2 3 0 2 4-2l4-4 4-3c4-5 15-10 24-13 9-2 26-2 35 0 15 4 34 18 43 31 10 14 14 35 10 52-3 10-9 24-16 34-5 7-5 7-2 4l4-5 2-3 4-5 2-2c1 0 4-4 4-7l1-2c1 0 2-2 3-7a119 119 0 00-1-47c0-3-6-14-10-19-9-11-30-24-45-27-7-2-18-3-17-1h-2-1zM173 26c-6 1-11 4-8 4l3-1c2-2 20-4 27-3h6l3-1h-3c-4-2-22-1-28 1zM207 28l2 1c2 0 2 0 1-1h-3zM160 31v1l2-1 1-1-3 1zM153 35h1l2-2-3 2zM142 42l-3 1c-2-1-10 7-11 11-1 3 0 3 5-3l9-8c4-3 4-4 0-1zM233 42l3 3 10 12c8 10 11 12 4 3l-17-18z"/>
  <path d="M609 53c-6 2-11 5-17 12-6 6-15 21-15 23l6 3 10 6a3686 3686 0 0047 29l7 4 3-5c11-16 14-33 10-44l-2-6c-1-4-13-15-21-19-9-5-19-6-28-3zM180 59c-12 4-21 10-27 20-3 6-3 7-3 16 0 10 0 11 3 18 8 16 9 16 17 11 11-6 12-7 11-8v-1c1 1 6-1 11-5l10-5 5-3 9-5 4-3 1-1 4-2 3-3-2-3-5-8c-3-4-11-11-19-15-7-4-15-5-22-3zM554 61l-2 2 3-1 2-3-3 2zM121 67l-2 4c0 2 1 1 2-2l2-5-2 3zM117 75l-1 8-1 6 1-6 3-7c0-2 0-3-2-1zM114 98c0 3 1 4 1 2v-6l-1 4zM115 106h1v-2l-1 2zM116 112c0 3 6 16 13 30 3 8 10 17 10 14l-2-4a117 117 0 01-17-34s-2-2-2-5c-2-3-2-3-2-1zM292 189c-3 2-11 9-14 14-4 4-5 15-3 19l2 7c3 7 16 10 25 6 11-5 17-11 20-19s4-11 1-17c-4-9-9-12-22-12l-9 2zM484 190c-10 3-14 7-17 15v11c5 19 20 29 36 24 5-2 11-11 12-20 1-10-1-19-6-24l-5-4-4-1c-4-2-13-3-16-1zm-6 8c1 0 1 1 0 0l-1-1c0-2 1-1 1 1zM447 292l-21 2c-14 2-28 2-52 1-23-1-24-1-30 1-8 2-13 7-17 14-4 10-4 27 1 36a48 48 0 0025 20 132 132 0 0030 9l12 3 8 3 1 15c-1 15-2 22-5 25-1 2-9 2-26 1-27-2-29-2-31-1-3 2-2 4 2 8 5 6 15 10 32 14a198 198 0 0075-5l6-3 5-2 3-2 2-1 1-2 2-2c3-2 3-4-1-4h-22c-19 2-30 1-32-1s-4-14-5-29v-15l10-1 18-4 4-1c3 0 17-6 20-9l4-2c3 0 10-9 10-13h2l5-5c3-5 4-11 4-25-1-12-2-16-9-20l-18-6-14 1zM184 571c-21 2-44 12-58 25-6 6-11 15-15 25-2 7-2 9-2 17 1 11 3 16 9 23 9 9 14 10 22 3 5-4 5-5 2-20-4-13 0-25 9-34 14-14 33-21 56-21 10 0 23 2 30 5 9 4 16 13 16 22 0 13-8 26-20 33-7 3-23 8-30 8-6 0-6-1-3-13 4-12 8-20 14-28l4-6c0-4-6-7-13-7-4 0-6 1-11 4-7 5-10 9-16 21-5 10-12 29-12 32a912 912 0 01-18 57c-1 1-4 0-9-2-11-5-17-6-29-6-8 1-11 1-15 3-6 3-12 9-15 14-2 5-2 7-2 14 0 8 0 9 2 13 3 5 8 9 15 12 8 4 14 5 28 4 11-1 13-1 20-4l13-9 5-5 3 1c20 12 27 15 44 17 20 3 42-4 54-16 9-9 16-26 16-40s-3-23-13-33c-6-7-16-13-22-14-3-1-3-1 6-4l10-4c8-5 12-9 16-15 11-15 12-31 3-46-9-14-24-22-47-26-11-2-32-2-47 0zm36 105c13 3 20 9 25 20 3 6 3 6 3 16-1 15-2 17-11 26-6 6-9 8-13 10-7 2-18 2-26 0-11-4-26-12-26-16l4-10c4-10 8-20 11-34 3-11 5-15 8-15 4-1 19 1 25 3zm-88 54c10 5 10 6 2 13-6 6-10 7-16 7-13-2-17-11-8-20 5-4 13-4 22 0zM570 604c-12 5-15 20-7 28 7 8 23 5 28-5 2-5 3-14 0-18-3-7-13-9-21-5z"/>
  <path d="M460 616c-11 4-15 14-10 28 2 4 2 7 2 11-1 9-10 32-21 55-4 8-6 11-12 17l-13 9c-6 2-12 3-12 1l4-9c11-24 13-46 5-62-7-14-22-21-42-20-40 2-70 38-70 83 0 13 1 18 8 26 4 7 12 11 21 13 8 2 23 1 30 0 8-2 20-8 27-13 5-4 6-4 14-4 11 0 19-2 27-8 5-3 15-14 21-24a267 267 0 0024-58l13 12c2 5 1 8-3 14a643 643 0 00-22 41c-3 14 0 25 9 33 6 6 10 7 21 8 8 0 11 0 16-2 8-3 16-8 23-14l5-5 1 5c3 11 10 16 23 16 7 0 9 0 14-3 9-4 16-10 25-20 9-11 16-21 25-39 15-28 30-51 33-48l3 11a300 300 0 0012 43l1 7-4 4c-5 6-5 9-2 15 2 4 2 4 1 6-10 10-23 4-27-12-2-8-4-10-9-9-11 3-13 13-6 27 7 16 22 22 43 18 10-2 17-6 24-12l6-6h8c17-1 30-10 42-32 6-9 5-15-1-15-1 0-5 4-8 9-11 16-19 22-32 24-4 1-4 0-4-6 0-9-2-20-9-41-4-11-8-23-8-27l-2-7 3-6c3-7 2-10-2-13-5-3-16-3-22 0-11 5-25 21-36 40l-20 36c-4 8-20 29-25 32-6 5-10 6-13 4-2-2-2-2-2-10 1-8 4-20 18-60l5-19c2-7 2-8 1-10-3-3-16-4-23-2-5 1-6 3-11 20l-15 47c-4 11-19 27-29 32s-17 4-20-3c-5-10 0-25 16-47 6-9 8-13 7-17-1-8-5-13-19-27l-14-14 1-6c0-6-1-13-4-15-2-2-7-3-10-2zm-91 52c5 4 6 7 7 16 0 10-1 15-5 29-2 8-4 10-9 10l-5 3c-2 2-2 3-2 9 1 7 0 9-7 13-9 4-17 2-22-5-11-14 5-62 24-74 6-4 14-5 19-1z"/>
</svg>
